HIERARCHY
ROOT Hips
{
  OFFSET 79.3648 94.8442 -68.0143
  CHANNELS 6 Xposition Yposition Zposition Zrotation Xrotation Yrotation
  JOINT RightUpLeg
  {
    OFFSET -8.9458 -8.66707 0.101652
    CHANNELS 3 Zrotation Xrotation Yrotation
    JOINT RightLeg
    {
      OFFSET 0 -44.4227 1.3727
      CHANNELS 3 Zrotation Xrotation Yrotation
      JOINT RightFoot
      {
        OFFSET 0.253549 -42.0924 -1.46059
        CHANNELS 3 Zrotation Xrotation Yrotation
        JOINT RightToes
        {
          OFFSET 0.04 -4.41509 8.4991
          CHANNELS 3 Zrotation Xrotation Yrotation
          End Site
          {
            OFFSET -0.08 -0.137448 9.77979
          }
        }
      }
    }
  }
  JOINT Spine
  {
    OFFSET 0 11.8905 0
    CHANNELS 3 Zrotation Xrotation Yrotation
    JOINT Spine1
    {
      OFFSET 0 25.6574 0.127663
      CHANNELS 3 Zrotation Xrotation Yrotation
      JOINT HEad
      {
        OFFSET 0 8.73416 0.011341
        CHANNELS 3 Zrotation Xrotation Yrotation
        End Site
        {
          OFFSET -0.29 12.7742 2.51395
        }
      }
      JOINT LeftShoulder1
      {
        OFFSET 8.99 -0.362252 -0.22
        CHANNELS 3 Zrotation Xrotation Yrotation
        JOINT LeftArm
        {
          OFFSET 10.2827 -0.00338 0.322123
          CHANNELS 3 Zrotation Xrotation Yrotation
          JOINT LeftForeArm
          {
            OFFSET 32.7669 0.099144 -1.42434
            CHANNELS 3 Zrotation Xrotation Yrotation
            JOINT LeftHand
            {
              OFFSET 27.5643 0.085362 1.02216
              CHANNELS 3 Zrotation Xrotation Yrotation
              End Site
              {
                OFFSET 16.7443 -0.6 1.50291
              }
            }
          }
        }
      }
      JOINT RightShoulder
      {
        OFFSET -8.99 -0.362252 -0.22
        CHANNELS 3 Zrotation Xrotation Yrotation
        JOINT RightArm
        {
          OFFSET -10.2827 -0.00338 0.322123
          CHANNELS 3 Zrotation Xrotation Yrotation
          JOINT RightForeArm
          {
            OFFSET -32.8971 0.099144 -1.42434
            CHANNELS 3 Zrotation Xrotation Yrotation
            JOINT RightHand
            {
              OFFSET -27.4921 0.085362 1.02216
              CHANNELS 3 Zrotation Xrotation Yrotation
              End Site
              {
                OFFSET -16.6312 -0.6 1.50291
              }
            }
          }
        }
      }
    }
  }
  JOINT LeftUpLeg
  {
    OFFSET 8.9458 -8.66707 0.101652
    CHANNELS 3 Zrotation Xrotation Yrotation
    JOINT LeftLeg
    {
      OFFSET 0 -44.4227 1.3727
      CHANNELS 3 Zrotation Xrotation Yrotation
      JOINT LeftFoot
      {
        OFFSET -0.253549 -42.0924 -1.46059
        CHANNELS 3 Zrotation Xrotation Yrotation
        JOINT LeftToes
        {
          OFFSET -0.04 -4.41509 8.4991
          CHANNELS 3 Zrotation Xrotation Yrotation
          End Site
          {
            OFFSET 0.08 -0.047448 9.77979
          }
        }
      }
    }
  }
}
MOTION
Frames:	18
Frame Time:	0.0166667
79.3648 94.8442 -68.0143 2.51074 -4.287 46.4587 -13.3739 -23.7497 3.10243 2.73081 32.5568 6.61814 12.1646 -0.867096 -0.852036 -6.43896 -19.0054 -2.19335 2.06124 6.38691 -4.89297 -3.30647 12.069 -8.53169 14.5773 8.64237 -14.0768 2.38542e-015 0 3.18055e-015 -73.4989 -0.202533 -40.3544 -16.4214 44.0016 -105.038 6.54677 9.62745 -1.04006 28.5602 -5.8546 -21.5027 55.1446 -19.5737 21.676 -14.5137 32.6187 137.649 -21.6142 9.62511 -2.80614 19.003 -0.215914 -7.77251 -15.7374 32.2315 7.8829 -12.0926 21.9728 2.97755 51.0978 -55.7338 35.8295 
79.3813 94.5164 -67.6707 2.48258 -4.45627 44.8828 -10.9721 -24.8805 1.84789 -0.417018 32.4048 10.4479 11.7675 2.19977 -1.12243 -7.10067 -21.5449 -2.01883 2.36766 6.38512 -4.59548 -3.90889 11.9007 -7.81811 14.7874 8.65445 -13.6645 -7.95139e-016 -1.59028e-015 -0 -72.7226 -1.32002 -41.3733 -16.5072 44.0007 -104.739 6.54677 9.62745 -1.04006 28.4373 -5.84426 -21.5444 55.2434 -19.3004 21.7933 -14.6686 32.3433 137.844 -21.5669 9.70082 -3.22027 18.7632 -0.645271 -8.28526 -14.6891 33.865 5.72519 -16.2771 24.8978 4.47385 58.7529 -57.8564 42.6537 
79.4527 94.1661 -67.3237 2.55105 -4.54531 42.643 -8.48582 -26.1299 1.64841 -3.41333 32.5178 13.1631 11.2124 7.25483 -1.53324 -8.64665 -27.9473 -1.42269 2.57961 6.40372 -4.15881 -4.63762 11.7444 -6.8296 14.8175 8.55292 -13.0501 -1.59028e-015 3.18055e-015 -0 -72.0621 -2.93839 -42.4975 -16.671 44.1547 -104.475 6.54677 9.62745 -1.04006 28.262 -5.78263 -21.4516 55.4391 -18.7819 22.194 -14.52 32.4184 137.593 -21.9852 9.65199 -2.97845 18.0001 -0.730906 -9.36035 -13.4268 35.1532 3.35036 -20.9782 27.7302 6.35151 67.8025 -59.3402 51.0005 
79.6203 93.824 -66.9558 2.67697 -4.63102 39.6489 -5.97233 -27.1131 3.07161 -5.82949 32.4737 14.4548 11.215 13.244 -2.07741 -10.4968 -36.9153 -0.233439 2.60303 6.41625 -3.61837 -5.35714 11.5757 -5.6306 14.4665 8.44833 -12.0302 -1.59028e-015 3.97569e-015 3.18055e-015 -71.6447 -5.28331 -43.5293 -17.016 44.6059 -104.239 6.54677 9.62745 -1.04006 28.0043 -5.63581 -21.1282 55.7026 -17.8331 23.0389 -14.1265 32.7236 136.847 -22.8445 9.47622 -2.11997 16.783 -0.282833 -10.8293 -11.9652 35.957 0.503057 -26.0148 30.121 8.51153 77.5286 -60.1226 59.9999 
79.9073 93.5143 -66.5577 2.7485 -4.77063 35.8631 -3.4696 -27.6019 5.88779 -7.4023 31.8737 14.5452 11.8362 19.8144 -2.82681 -12.1515 -47.4541 1.66765 2.44561 6.37695 -3.04358 -5.90754 11.3286 -4.35931 13.5198 8.50675 -10.3592 7.95139e-016 7.95139e-016 3.18055e-015 -71.5142 -8.51827 -44.2708 -17.5862 45.3784 -103.981 6.54677 9.62745 -1.04006 27.6215 -5.36767 -20.4701 55.9516 -16.2613 24.4486 -13.5928 33.0393 135.603 -24.0349 9.18466 -0.803466 15.2366 0.769906 -12.3368 -10.2238 36.2234 -3.01676 -31.1373 31.858 10.7791 87.393 -60.7319 68.5932 
80.3145 93.2436 -66.1293 2.63978 -4.94154 31.3421 -1.02299 -27.6573 9.11043 -8.36905 30.6588 14.3478 12.7289 26.1877 -3.71638 -12.5263 -57.54 4.83736 2.20572 6.23831 -2.53297 -6.15756 10.9258 -3.22681 11.844 8.8694 -7.81936 3.97569e-016 4.77083e-015 -0 -71.5804 -12.7255 -44.6026 -18.3345 46.3193 -103.575 6.54677 9.62745 -1.04006 27.0675 -4.9578 -19.4111 56.0993 -13.9706 26.4823 -13.0217 33.1983 133.933 -25.3251 8.81657 0.713926 13.481 2.32783 -13.5683 -8.21957 35.988 -7.09202 -35.9366 32.8906 12.9006 97.2541 -62.0258 76.0277 
80.8208 92.9922 -65.6655 2.27481 -5.06921 26.2463 1.41058 -27.6149 11.7424 -9.22133 29.2858 15.1311 13.5718 30.9513 -4.51556 -10.3267 -64.7955 9.97102 2.03543 5.99022 -2.16586 -6.03842 10.3495 -2.45182 9.45433 9.55689 -4.30701 -1.59028e-015 1.59028e-015 3.18055e-015 -71.6208 -17.8185 -44.5609 -19.1134 47.1043 -102.811 6.54677 9.62745 -1.04006 26.3086 -4.42514 -17.9911 56.0903 -10.96 29.122 -12.515 33.105 131.999 -26.4721 8.4356 2.16467 11.6258 4.17315 -14.3935 -6.15445 35.3942 -11.2108 -39.8925 33.3377 14.6059 107.029 -64.7279 81.9871 
81.3708 92.7617 -65.209 1.68454 -5.08745 20.8933 3.81814 -27.691 13.421 -10.123 28.0642 17.4132 14.4488 33.6118 -5.14636 -5.6625 -68.6508 16.7806 2.03056 5.68722 -2.02824 -5.58024 9.69425 -2.17411 6.55815 10.411 0.100505 -3.97569e-016 -1.59028e-015 6.36111e-015 -71.3087 -23.4539 -44.3546 -19.6458 47.2783 -101.433 6.54677 9.62745 -1.04006 25.3403 -3.81869 -16.3276 55.9438 -7.38037 32.2293 -12.1923 32.7027 130.082 -27.2968 8.11307 3.33184 9.77976 6.03663 -14.8119 -4.30863 34.6133 -14.6751 -42.6061 33.5218 15.7666 116.259 -68.8953 86.5336 
81.8826 92.5478 -64.7935 0.996321 -5.01089 15.6819 6.09658 -27.9178 14.4 -10.9101 27.1739 20.7148 15.6194 34.6187 -5.71255 -0.277291 -69.8824 23.6625 2.14908 5.42203 -2.15372 -4.92141 9.13971 -2.42426 3.55212 11.1568 5.11005 -5.96354e-016 -1.59028e-015 3.18055e-015 -70.2667 -29.0319 -44.2921 -19.5154 46.3282 -99.1859 6.54677 9.62745 -1.04006 24.2236 -3.20294 -14.5725 55.7541 -3.58663 35.5478 -12.1514 32.0016 128.557 -27.6375 7.92942 4.003 8.06556 7.72089 -14.8532 -2.89411 33.8572 -16.9384 -43.9833 33.6684 16.3874 124.114 -73.6212 89.9555 
82.2683 92.3599 -64.4416 0.362261 -4.93532 11.0435 8.10242 -28.1897 15.0287 -11.4426 26.6972 24.196 17.0945 34.5924 -6.26449 4.01685 -69.4362 28.9505 2.27375 5.27661 -2.53773 -4.25408 8.8547 -3.18129 0.908889 11.5886 10.2755 5.96354e-016 -3.18055e-015 -7.95139e-016 -68.108 -33.8209 -44.6293 -18.2666 43.8222 -95.7636 6.54677 9.62745 -1.04006 23.1013 -2.64102 -12.8781 55.6204 -0.0154787 38.7478 -12.4045 31.0794 127.767 -27.357 7.95897 3.96826 6.62072 9.13693 -14.5687 -2.03167 33.2823 -17.803 -44.1431 33.7873 16.5015 129.603 -77.5871 92.2441 
82.4642 92.2299 -64.1711 -0.107207 -4.95885 7.39313 9.66762 -28.3599 15.3713 -11.7321 26.5519 27.1713 18.5289 34.0477 -6.71752 6.52149 -68.1174 32.0318 2.29969 5.27509 -3.17536 -3.72912 8.89703 -4.44291 -1.0249 11.7085 15.1603 -3.88251e-016 0 6.52262e-017 -60.8569 -34.0188 -44.153 -14.6359 35.5499 -91.4035 6.54677 9.62745 -1.04006 22.1253 -2.166 -11.3359 55.6006 3.00006 41.4796 -12.8815 30.0098 127.877 -26.4416 8.21824 3.13143 5.60924 10.25 -14.0683 -1.82103 32.9386 -17.3947 -43.235 33.7993 16.133 131.534 -80.0222 92.5265 
82.4561 92.1883 -63.9846 -0.371677 -5.10557 5.02926 10.6322 -28.3402 15.2738 -11.8314 26.5116 29.2296 19.535 33.4841 -6.9966 7.68332 -66.6988 33.4814 2.1833 5.38059 -4.05457 -3.39511 9.20025 -6.20799 -2.17206 11.6779 19.4773 0 1.59028e-015 -0 -46.62 -27.3787 -42.6329 -9.8272 19.5426 -83.5625 6.54677 9.62745 -1.04006 21.3806 -1.78715 -10.0062 55.6954 5.36165 43.4957 -13.4899 28.8048 128.816 -25.0403 8.6438 1.58429 5.19738 11.0269 -13.4852 -2.32384 32.8112 -16.0696 -41.371 33.6559 15.3178 129.043 -80.9932 89.7129 
82.2852 92.2438 -63.8684 -0.459804 -5.30548 3.99956 10.9422 -28.1636 14.6612 -11.7357 26.3799 30.2466 19.9088 33.2248 -7.08915 8.16355 -65.7017 34.0911 1.95713 5.5302 -5.12133 -3.21913 9.62879 -8.38678 -2.69407 11.6636 23.114 0 0 -0 -30.7839 -18.3617 -42.4758 -5.4695 2.55836 -70.0577 6.54677 9.62745 -1.04006 20.9113 -1.52297 -9.01578 55.8074 7.242 44.7784 -14.1931 27.4022 130.346 -23.3821 9.1419 -0.483308 5.46926 11.4197 -12.8966 -3.48913 32.877 -14.2997 -38.6498 33.326 14.1086 122.615 -81.0566 83.8174 
82.0392 92.3825 -63.7959 -0.449216 -5.42994 4.01717 10.7267 -27.9785 13.7119 -11.4096 26.1552 30.4223 19.5905 33.1282 -6.95577 8.00974 -65.0225 33.8846 1.71658 5.66721 -6.25521 -3.13705 10.0359 -10.7332 -2.86091 11.7137 26.0706 0 0 -0 -16.6656 -10.4023 -43.6594 -1.43754 -10.2407 -52.8022 6.54677 9.62745 -1.04006 20.739 -1.39735 -8.51743 55.7665 8.93541 45.5337 -15.011 25.7265 132.181 -21.6526 9.64482 -2.91724 6.32838 11.4057 -12.2764 -5.11782 33.0978 -12.5416 -35.262 32.7471 12.5948 113.108 -80.7605 75.2514 
81.8254 92.5742 -63.7244 -0.41975 -5.36277 4.5106 10.2555 -27.9553 12.7547 -10.902 25.9785 30.2406 18.7045 32.7616 -6.57191 6.99793 -64.1358 32.5376 1.55837 5.75399 -7.27693 -3.07935 10.3108 -12.8758 -2.97326 11.6963 28.4121 -0 0 1.59028e-015 -7.71923 -6.05198 -44.844 1.61672 -15.7619 -37.1328 6.54677 9.62745 -1.04006 20.7799 -1.39504 -8.49634 55.493 10.5723 46.0593 -15.9222 23.8197 134.086 -19.9191 10.1166 -5.62067 7.45829 11.0706 -11.5251 -6.88952 33.3861 -11.115 -31.5895 31.8369 10.9397 100.876 -80.2867 64.1059 
81.7283 92.7946 -63.6141 -0.393206 -5.06343 4.85611 9.79171 -28.142 12.043 -10.3906 25.8869 30.2592 17.6248 31.8823 -6.04686 5.36438 -62.6616 30.3037 1.51137 5.77483 -8.00718 -2.99052 10.4098 -14.4376 -3.30195 11.3633 30.2174 0 0 -0 -5.36109 -5.03394 -45.0712 3.5091 -17.2403 -28.0701 6.54677 9.62745 -1.04006 20.8045 -1.43835 -8.67834 55.1267 11.965 46.5938 -16.8552 21.8703 135.93 -18.1426 10.5317 -8.50884 8.43222 10.6245 -10.6211 -8.50247 33.5781 -10.0933 -28.1401 30.611 9.36973 86.9118 -79.4376 51.3017 
81.7716 93.0302 -63.451 -0.320368 -4.59786 4.67533 9.48171 -28.4359 11.6495 -10.0919 25.7884 30.8312 16.7733 30.5964 -5.56014 3.69584 -60.6393 27.9046 1.52999 5.74324 -8.32381 -2.86378 10.3711 -15.1573 -3.94002 10.5729 31.4602 0 1.59028e-015 -0 -8.93571 -6.15585 -44.3091 5.28481 -18.9972 -27.4027 6.54677 9.62745 -1.04006 20.5765 -1.4355 -8.72919 54.9393 12.7637 47.2497 -17.7776 20.0648 137.672 -16.2606 10.8643 -11.4987 8.91627 10.3066 -9.76696 -9.81217 33.4893 -9.31277 -25.3644 29.2626 8.0954 73.7767 -77.991 39.4008 
81.9168 93.2652 -63.2533 -0.141589 -4.12352 4.01935 9.32473 -28.6577 11.496 -10.1242 25.592 31.8898 16.3664 29.2517 -5.23232 2.45801 -58.5286 25.9918 1.54269 5.70561 -8.20609 -2.7534 10.3072 -14.9823 -4.69207 9.48681 31.9729 0 0 -0 -17.1004 -9.15273 -42.8336 6.02627 -20.4448 -35.5757 6.54677 9.62745 -1.04006 20.0375 -1.3568 -8.52972 55.1301 12.7577 48.069 -18.7026 18.4766 139.266 -14.2813 11.0922 -14.4966 8.79992 10.2497 -9.29249 -10.7272 33.0592 -8.63286 -23.5909 28.0817 7.25689 63.8193 -76.1465 30.6569 
